<?xml version="1.0" encoding="UTF-8" standalone="no"?>
<!-- Uploaded to: SVG Repo, www.svgrepo.com, Generator: SVG Repo Mixer Tools -->

<svg
   width="39.000019"
   height="13"
   viewBox="0 0 6.9094384 2.303145"
   version="1.1"
   id="svg3"
   sodipodi:docname="visa-logo-svgrepo-com.svg"
   xmlns:inkscape="http://www.inkscape.org/namespaces/inkscape"
   xmlns:sodipodi="http://sodipodi.sourceforge.net/DTD/sodipodi-0.dtd"
   xmlns="http://www.w3.org/2000/svg"
   xmlns:svg="http://www.w3.org/2000/svg">
  <defs
     id="defs3" />
  <sodipodi:namedview
     id="namedview3"
     pagecolor="#ffffff"
     bordercolor="#000000"
     borderopacity="0.25"
     inkscape:showpageshadow="2"
     inkscape:pageopacity="0.0"
     inkscape:pagecheckerboard="0"
     inkscape:deskcolor="#d1d1d1">
    <inkscape:page
       x="0"
       y="0"
       width="6.9094386"
       height="2.3031449"
       id="page2"
       margin="0"
       bleed="0" />
  </sodipodi:namedview>
  <g
     fill="#2566af"
     id="g1"
     transform="matrix(0.05792618,0,0,0.0595174,-0.65027594,-3.066278)">
    <path
       d="m 62.935,89.571 h -9.733 l 6.083,-37.384 h 9.734 z M 45.014,52.187 35.735,77.9 34.637,72.363 34.638,72.365 31.363,55.553 c 0,0 -0.396,-3.366 -4.617,-3.366 h -15.34 l -0.18,0.633 c 0,0 4.691,0.976 10.181,4.273 l 8.456,32.479 H 40.004 L 55.489,52.187 Z m 76.555,37.384 h 8.937 l -7.792,-37.385 h -7.824 c -3.613,0 -4.493,2.786 -4.493,2.786 L 95.881,89.571 h 10.146 l 2.029,-5.553 h 12.373 z m -10.71,-13.224 5.114,-13.99 2.877,13.99 z m -14.217,-15.17 1.389,-8.028 c 0,0 -4.286,-1.63 -8.754,-1.63 -4.83,0 -16.3,2.111 -16.3,12.376 0,9.658 13.462,9.778 13.462,14.851 0,5.073 -12.075,4.164 -16.06,0.965 l -1.447,8.394 c 0,0 4.346,2.111 10.986,2.111 6.642,0 16.662,-3.439 16.662,-12.799 0,-9.72 -13.583,-10.625 -13.583,-14.851 0.001,-4.227 9.48,-3.684 13.645,-1.389 z"
       id="path1" />
  </g>
  <path
     d="M 1.356171,1.240639 1.166463,0.24003299 c 0,0 -0.02294,-0.200336 -0.26744594,-0.200336 h -0.888587 L 6.2738489e-8,0.07737699 c 0,0 0.427089997261511,0.09094 0.836743997261511,0.431679 C 1.228441,0.83473599 1.356168,1.240644 1.356168,1.240644 Z"
     fill="#e6a540"
     id="path2"
     style="stroke-width:0.0587165" />
  <path
     fill="none"
     d="M -11.225997,-51.519001 H 130.506 v 141.732 H -11.225997 Z"
     id="path3" />
</svg>
